<svg width="65" height="65" viewBox="0 0 65 65" fill="none" xmlns="http://www.w3.org/2000/svg">
<g clip-path="url(#clip0)">
<path d="M62.0365 40.5832L63.8962 38.7241C65.0666 37.5532 65.0666 35.6484 63.8962 34.4776C63.3289 33.9108 62.5751 33.5983 61.7727 33.5983C61.1707 33.5983 60.5954 33.7744 60.1064 34.1022L59.7147 32.787L61.7276 30.7736C62.8984 29.6028 62.8984 27.698 61.7276 26.5276C60.65 25.4495 58.951 25.3667 57.7742 26.2737L55.3888 18.2657C56.3415 17.3483 57.254 16.4557 58.1139 15.5958C60.5919 13.1172 62.6068 10.4943 63.7876 8.20915C65.7826 4.347 64.9475 2.28252 63.8957 1.23069C62.8444 0.178863 60.7799 -0.655756 56.9172 1.3393C54.6326 2.51956 52.0092 4.53445 49.5311 7.01302C48.6712 7.87293 47.7781 8.78491 46.8612 9.73755L38.8527 7.35222C39.7597 6.17592 39.6769 4.47693 38.5993 3.39881C37.4284 2.22846 35.5236 2.22797 34.3533 3.39881L32.3399 5.41221L31.0242 5.02044C31.352 4.53098 31.5281 3.95572 31.5281 3.35369C31.5281 2.5518 31.2157 1.79752 30.6488 1.23069C29.4785 0.0598441 27.5732 0.0598441 26.4028 1.23069L24.5437 3.08986L15.0673 0.267135C14.7296 0.166961 14.3646 0.259201 14.1161 0.508148L11.6767 2.94754C11.2671 3.35666 11.3212 4.05639 11.7883 4.39808L35.6982 21.8993C30.3071 27.9777 25.114 34.0635 21.4477 38.4116L14.4147 35.7064C14.0611 35.5706 13.6609 35.6554 13.3931 35.9232L10.5019 38.8143C10.128 39.1887 10.128 39.7952 10.5019 40.1692L24.9573 54.6245C25.3262 54.9939 25.9431 54.9939 26.3126 54.6245L29.2032 51.7338C29.471 51.466 29.5563 51.0653 29.42 50.7117L26.7153 43.6792C31.0634 40.0129 37.1487 34.8198 43.2276 29.4282L45.127 32.0238C45.4642 32.4845 46.148 32.544 46.5616 32.1513C46.9063 31.824 46.9539 31.275 46.6737 30.8921L44.6658 28.1488C47.8445 25.3116 50.9837 22.4492 53.8317 19.752L62.8597 50.0596L61.6145 51.3043L49.2063 34.3521C48.8939 33.9251 48.2943 33.8324 47.8674 34.1448C47.4399 34.4577 47.3471 35.0573 47.6601 35.4843L60.7288 53.3386C61.0705 53.8057 61.7702 53.8598 62.1794 53.4501L64.6187 51.0108C64.8677 50.7623 64.9599 50.3968 64.8598 50.0596L62.0365 40.5832ZM35.7086 4.75414C36.1272 4.33559 36.8259 4.33559 37.2444 4.75414C37.668 5.17765 37.668 5.86647 37.2444 6.28998L36.7951 6.73927L34.4282 6.03409L35.7086 4.75414ZM27.7582 2.58602C28.1812 2.16251 28.8705 2.16251 29.294 2.58602C29.7175 3.00952 29.7175 3.69835 29.294 4.12185L28.9984 4.41692L26.6319 3.71223L27.7582 2.58602ZM13.8221 3.51188L15.0673 2.26715L45.3749 11.2947C42.6776 14.1432 39.8152 17.2823 36.9776 20.4611L13.8221 3.51188ZM14.3081 37.7189L20.1424 39.9629C18.679 41.7055 17.5568 43.0539 16.8947 43.8518L12.5347 39.4917L14.3081 37.7189ZM18.256 45.2131C21.5965 41.1828 39.2534 20.0009 50.8865 8.36785C53.1944 6.05938 55.7137 4.11838 57.797 3.04225C59.3611 2.23392 61.4538 1.49898 62.5409 2.58602C63.6279 3.67305 62.8925 5.7658 62.0846 7.3299C61.0085 9.41323 59.067 11.932 56.7585 14.2404C45.1265 25.8725 23.9441 43.5299 19.9138 46.8709L18.256 45.2131ZM27.408 50.8188L25.6352 52.5917L21.2751 48.2317C22.0725 47.5701 23.4214 46.4479 25.164 44.9845L27.408 50.8188ZM61.005 35.8329C61.4285 35.4094 62.1174 35.4094 62.5409 35.8329C62.9644 36.2564 62.9644 36.9452 62.5409 37.3687L61.4147 38.495L60.7095 36.1285L61.005 35.8329ZM58.8369 27.8825C59.2599 27.4589 59.9492 27.4594 60.3727 27.8825C60.7913 28.301 60.7913 28.9997 60.3727 29.4183L59.0923 30.6987L58.3871 28.3317L58.8369 27.8825Z" fill="white"/>
<path d="M57.5202 55.3139L49.3432 63.491C48.9945 63.8401 48.9712 64.4163 49.2921 64.7912C49.6506 65.2098 50.3087 65.2361 50.6985 64.8463L58.8756 56.6692C59.25 56.2948 59.25 55.6883 58.8756 55.3139C58.5017 54.94 57.8947 54.94 57.5202 55.3139Z" fill="white"/>
<path d="M54.7868 52.5805C55.1612 52.2065 55.1612 51.5996 54.7868 51.2256C54.4129 50.8512 53.8059 50.8512 53.432 51.2256L48.3211 56.336C47.9725 56.6851 47.9492 57.2614 48.2701 57.6363C48.6286 58.0548 49.2867 58.0811 49.6765 57.6913L54.7868 52.5805Z" fill="white"/>
<path d="M51.7206 47.4701C52.095 47.0957 52.095 46.4887 51.7206 46.1148C51.3462 45.7404 50.7397 45.7404 50.3652 46.1148L46.7877 49.6923C46.4391 50.0409 46.4158 50.6177 46.7372 50.9926C47.0952 51.4111 47.7533 51.4374 48.1431 51.0476L51.7206 47.4701Z" fill="white"/>
<path d="M9.8131 6.76213C9.43868 6.38821 8.83169 6.38821 8.45777 6.76213L0.280688 14.9397C-0.0937254 15.3136 -0.0937254 15.9206 0.280688 16.2945C0.649646 16.6635 1.26656 16.6635 1.63601 16.2945L9.8131 8.11745C10.187 7.74304 10.187 7.13654 9.8131 6.76213Z" fill="white"/>
<path d="M13.9014 10.8509C13.527 10.4765 12.9205 10.4765 12.5465 10.8509L7.43569 15.9617C7.08656 16.3104 7.06375 16.8866 7.38461 17.2615C7.74315 17.6801 8.40073 17.7064 8.79052 17.3166L13.9014 12.2062C14.2758 11.8318 14.2758 11.2248 13.9014 10.8509Z" fill="white"/>
<path d="M14.0794 18.85C14.4488 19.2189 15.0653 19.2189 15.4347 18.85L19.0122 15.2725C19.3861 14.8981 19.3861 14.2916 19.0122 13.9172C18.6378 13.5432 18.0313 13.5432 17.6569 13.9172L14.0794 17.4947C13.7055 17.8691 13.7055 18.4756 14.0794 18.85Z" fill="white"/>
</g>
<defs>
<clipPath id="clip0">
<rect width="65" height="65" fill="white"/>
</clipPath>
</defs>
</svg>
