<svg width="65" height="65" viewBox="0 0 65 65" fill="none" xmlns="http://www.w3.org/2000/svg">
<path d="M64.0346 49.0098H57.674V41.1219C57.674 40.5888 57.2418 40.1566 56.7087 40.1566C56.1756 40.1566 55.7433 40.5888 55.7433 41.1219V62.9684H42.5537H39.1758V58.6633V55.7674V50.2167V47.3208V41.7703V38.8743V34.2892H55.7433V36.6166C55.7433 37.1497 56.1756 37.582 56.7087 37.582C57.2418 37.582 57.674 37.1497 57.674 36.6166V33.3239C57.674 32.7909 57.2418 32.3586 56.7087 32.3586H43.519V1.06643C43.519 0.53335 43.0867 0.101074 42.5537 0.101074H22.4758C21.9427 0.101074 21.5104 0.53335 21.5104 1.06643V15.5076H9.02319C8.49012 15.5076 8.05784 15.9399 8.05784 16.4729V40.2073H0.965352C0.432275 40.2073 0 40.6396 0 41.1727V63.9336C0 64.4667 0.432275 64.899 0.965352 64.899H9.02319H29.1013C29.1022 64.899 29.103 64.8988 29.1038 64.8988H38.2105H42.5537H56.7063C56.707 64.8988 56.7079 64.899 56.7087 64.899H64.0346C64.5677 64.899 65 64.4667 65 63.9336V49.9751C65 49.442 64.5677 49.0098 64.0346 49.0098ZM8.05784 62.9683H1.9307V42.138H8.05784V62.9683ZM28.136 62.9683H22.4758V62.9684H9.98855V57.6301H28.136V62.9683ZM28.136 49.1997H19.4358C18.9027 49.1997 18.4704 49.632 18.4704 50.165C18.4704 50.6981 18.9027 51.1304 19.4358 51.1304H28.136V55.6994H9.98855V51.1304H14.9307C15.4638 51.1304 15.8961 50.6981 15.8961 50.165C15.8961 49.632 15.4638 49.1997 14.9307 49.1997H9.98855V44.6306H28.136V49.1997ZM28.136 42.7002H9.98855V41.1727V38.131H28.136V42.7002ZM28.136 36.2005H9.98855V31.6315H28.136V36.2005ZM28.136 29.7008H9.98855V25.1318H28.136V29.7008ZM28.136 23.2011H9.98855V17.4382H28.136V23.2011ZM37.2451 33.3241V38.8746V41.7705V47.321V50.217V55.7676V58.6635V62.9686H30.0667V16.4728C30.0667 15.9397 29.6345 15.5075 29.1013 15.5075H27.7852V13.5769C27.7852 13.0438 27.3531 12.6115 26.8199 12.6115C26.2867 12.6115 25.8545 13.0438 25.8545 13.5769V15.5075H23.4411V2.03178H41.5882V32.3587H38.2104C37.6773 32.3587 37.2451 32.7909 37.2451 33.3241ZM63.0693 62.9683H57.6742V50.9403H63.0693V62.9683Z" fill="white"/>
<path d="M38.2105 21.0161C37.6773 21.0161 37.2451 21.4484 37.2451 21.9815V24.8774C37.2451 25.4106 37.6774 25.8427 38.2105 25.8427C38.7437 25.8427 39.1758 25.4105 39.1758 24.8774V21.9815C39.1758 21.4484 38.7437 21.0161 38.2105 21.0161Z" fill="white"/>
<path d="M32.5152 21.0161C31.982 21.0161 31.5499 21.4484 31.5499 21.9815V24.8774C31.5499 25.4106 31.9822 25.8427 32.5152 25.8427C33.0484 25.8427 33.4806 25.4105 33.4806 24.8774V21.9815C33.4806 21.4484 33.0484 21.0161 32.5152 21.0161Z" fill="white"/>
<path d="M38.2105 12.6113C37.6773 12.6113 37.2451 13.0436 37.2451 13.5767V16.4726C37.2451 17.0057 37.6774 17.438 38.2105 17.438C38.7437 17.438 39.1758 17.0057 39.1758 16.4726V13.5767C39.1758 13.0436 38.7437 12.6113 38.2105 12.6113Z" fill="white"/>
<path d="M32.5152 12.6113C31.982 12.6113 31.5499 13.0436 31.5499 13.5767V16.4726C31.5499 17.0057 31.9822 17.438 32.5152 17.438C33.0484 17.438 33.4806 17.0057 33.4806 16.4726V13.5767C33.4806 13.0436 33.0484 12.6113 32.5152 12.6113Z" fill="white"/>
<path d="M26.8199 4.20679C26.2867 4.20679 25.8545 4.63906 25.8545 5.17214V8.06807C25.8545 8.60114 26.2868 9.03342 26.8199 9.03342C27.3531 9.03342 27.7852 8.60114 27.7852 8.06807V5.17214C27.7852 4.63906 27.3532 4.20679 26.8199 4.20679Z" fill="white"/>
<path d="M38.2105 4.20679C37.6773 4.20679 37.2451 4.63906 37.2451 5.17214V8.06807C37.2451 8.60114 37.6774 9.03342 38.2105 9.03342C38.7437 9.03342 39.1758 8.60114 39.1758 8.06807V5.17214C39.1758 4.63906 38.7437 4.20679 38.2105 4.20679Z" fill="white"/>
<path d="M32.5152 4.20679C31.982 4.20679 31.5499 4.63906 31.5499 5.17214V8.06807C31.5499 8.60114 31.9822 9.03342 32.5152 9.03342C33.0484 9.03342 33.4806 8.60114 33.4806 8.06807V5.17214C33.4806 4.63906 33.0484 4.20679 32.5152 4.20679Z" fill="white"/>
<path d="M37.6947 29.6129C37.304 29.8587 37.1396 30.3701 37.3193 30.7969C37.4735 31.161 37.8364 31.402 38.2336 31.3922C38.6383 31.3823 38.9985 31.1145 39.1266 30.7306C39.408 29.8863 38.4424 29.1424 37.6947 29.6129Z" fill="white"/>
<path d="M32.5152 29.4626C31.982 29.4626 31.5499 29.8949 31.5499 30.428V33.3239C31.5499 33.8571 31.9822 34.2893 32.5152 34.2893C33.0484 34.2893 33.4806 33.857 33.4806 33.3239V30.428C33.4806 29.8948 33.0484 29.4626 32.5152 29.4626Z" fill="white"/>
<path d="M32.5152 54.802C31.982 54.802 31.5499 55.2343 31.5499 55.7674V58.6633C31.5499 59.1964 31.9822 59.6286 32.5152 59.6286C33.0484 59.6286 33.4806 59.1964 33.4806 58.6633V55.7674C33.4806 55.2342 33.0484 54.802 32.5152 54.802Z" fill="white"/>
<path d="M32.5152 46.3557C31.982 46.3557 31.5499 46.788 31.5499 47.3211V50.217C31.5499 50.7501 31.9822 51.1823 32.5152 51.1823C33.0484 51.1823 33.4806 50.7501 33.4806 50.217V47.3211C33.4806 46.788 33.0484 46.3557 32.5152 46.3557Z" fill="white"/>
<path d="M32.5152 37.9092C31.982 37.9092 31.5499 38.3415 31.5499 38.8745V41.7705C31.5499 42.3035 31.9822 42.7358 32.5152 42.7358C33.0484 42.7358 33.4806 42.3035 33.4806 41.7705V38.8745C33.4806 38.3413 33.0484 37.9092 32.5152 37.9092Z" fill="white"/>
<path d="M52.7994 54.5081H42.1197C41.5865 54.5081 41.1544 54.9403 41.1544 55.4734C41.1544 56.0065 41.5865 56.4388 42.1197 56.4388H52.7994C53.3326 56.4388 53.7647 56.0065 53.7647 55.4734C53.7647 54.9403 53.3327 54.5081 52.7994 54.5081Z" fill="white"/>
<path d="M52.7994 59.071H42.1197C41.5865 59.071 41.1544 59.5033 41.1544 60.0364C41.1544 60.5695 41.5865 61.0017 42.1197 61.0017H52.7994C53.3326 61.0017 53.7647 60.5695 53.7647 60.0364C53.7647 59.5032 53.3327 59.071 52.7994 59.071Z" fill="white"/>
<path d="M52.7994 49.9448H42.1197C41.5865 49.9448 41.1544 50.3771 41.1544 50.9102C41.1544 51.4433 41.5865 51.8755 42.1197 51.8755H52.7994C53.3326 51.8755 53.7647 51.4433 53.7647 50.9102C53.7647 50.3771 53.3327 49.9448 52.7994 49.9448Z" fill="white"/>
<path d="M52.7994 36.2556H42.1197C41.5865 36.2556 41.1544 36.6879 41.1544 37.221C41.1544 37.754 41.5865 38.1863 42.1197 38.1863H52.7994C53.3326 38.1863 53.7647 37.754 53.7647 37.221C53.7647 36.6879 53.3327 36.2556 52.7994 36.2556Z" fill="white"/>
<path d="M52.7994 45.3818H42.1197C41.5865 45.3818 41.1544 45.8141 41.1544 46.3472C41.1544 46.8803 41.5865 47.3125 42.1197 47.3125H52.7994C53.3326 47.3125 53.7647 46.8803 53.7647 46.3472C53.7647 45.8141 53.3327 45.3818 52.7994 45.3818Z" fill="white"/>
<path d="M52.7994 40.8188H42.1197C41.5865 40.8188 41.1544 41.2511 41.1544 41.7842C41.1544 42.3173 41.5865 42.7495 42.1197 42.7495H52.7994C53.3326 42.7495 53.7647 42.3173 53.7647 41.7842C53.7647 41.2511 53.3327 40.8188 52.7994 40.8188Z" fill="white"/>
<path d="M4.99422 43.6724C4.46102 43.6724 4.02887 44.1046 4.02887 44.6377V47.1475C4.02887 47.6805 4.46102 48.1128 4.99422 48.1128C5.52742 48.1128 5.95957 47.6805 5.95957 47.1475V44.6377C5.95957 44.1046 5.5273 43.6724 4.99422 43.6724Z" fill="white"/>
<path d="M4.99422 50.333C4.46102 50.333 4.02887 50.7653 4.02887 51.2984V53.8081C4.02887 54.3412 4.46102 54.7734 4.99422 54.7734C5.52742 54.7734 5.95957 54.3412 5.95957 53.8081V51.2984C5.95957 50.7652 5.5273 50.333 4.99422 50.333Z" fill="white"/>
<path d="M4.99422 56.9934C4.46102 56.9934 4.02887 57.4257 4.02887 57.9588V60.4685C4.02887 61.0016 4.46102 61.4338 4.99422 61.4338C5.52742 61.4338 5.95957 61.0016 5.95957 60.4685V57.9588C5.95957 57.4256 5.5273 56.9934 4.99422 56.9934Z" fill="white"/>
<path d="M60.3718 53.2571C59.8386 53.2571 59.4064 53.6894 59.4064 54.2224V56.9545C59.4064 57.4875 59.8386 57.9198 60.3718 57.9198C60.905 57.9198 61.3371 57.4875 61.3371 56.9545V54.2224C61.3371 53.6894 60.905 53.2571 60.3718 53.2571Z" fill="white"/>
<path d="M57.5416 18.6992H45.7651C45.2319 18.6992 44.7997 19.1315 44.7997 19.6646C44.7997 20.1976 45.2319 20.6299 45.7651 20.6299H57.5416C58.0748 20.6299 58.507 20.1976 58.507 19.6646C58.507 19.1315 58.0748 18.6992 57.5416 18.6992Z" fill="white"/>
<path d="M61.2098 22.7534H52.7151C52.1819 22.7534 51.7498 23.1857 51.7498 23.7188C51.7498 24.2518 52.1819 24.6841 52.7151 24.6841H61.2098C61.743 24.6841 62.1751 24.2518 62.1751 23.7188C62.1751 23.1857 61.743 22.7534 61.2098 22.7534Z" fill="white"/>
<path d="M17.3851 7.30884H8.8904C8.3572 7.30884 7.92505 7.74111 7.92505 8.27419C7.92505 8.80727 8.35732 9.23954 8.8904 9.23954H17.3851C17.9183 9.23954 18.3504 8.80727 18.3504 8.27419C18.3504 7.74111 17.9184 7.30884 17.3851 7.30884Z" fill="white"/>
<path d="M12.5586 10.5264H4.06405C3.53084 10.5264 3.09869 10.9586 3.09869 11.4917C3.09869 12.0248 3.53097 12.4571 4.06405 12.4571H12.5587C13.0919 12.4571 13.5241 12.0248 13.5241 11.4917C13.5241 10.9586 13.0919 10.5264 12.5586 10.5264Z" fill="white"/>
</svg>
