<svg width="40" height="45" viewBox="0 0 40 45" fill="none" xmlns="http://www.w3.org/2000/svg">
<g clip-path="url(#clip0)">
<path d="M35.1562 5.625H30.9375V1.05469C30.9375 0.474609 30.4629 0 29.8828 0H26.3672C25.7871 0 25.3125 0.474609 25.3125 1.05469V5.625H14.0625V1.05469C14.0625 0.474609 13.5879 0 13.0078 0H9.49219C8.91211 0 8.4375 0.474609 8.4375 1.05469V5.625H4.21875C1.88965 5.625 0 7.51465 0 9.84375V40.7812C0 43.1104 1.88965 45 4.21875 45H35.1562C37.4854 45 39.375 43.1104 39.375 40.7812V9.84375C39.375 7.51465 37.4854 5.625 35.1562 5.625ZM34.6289 40.7812H4.74609C4.45605 40.7812 4.21875 40.5439 4.21875 40.2539V14.0625H35.1562V40.2539C35.1562 40.5439 34.9189 40.7812 34.6289 40.7812Z" fill="#4E4E4E"/>
</g>
<defs>
<clipPath id="clip0">
<rect width="39.375" height="45" fill="white"/>
</clipPath>
</defs>
</svg>
