<svg width="125" height="125" viewBox="0 0 125 125" fill="none" xmlns="http://www.w3.org/2000/svg">
<circle cx="62.5" cy="62.5" r="62.5" fill="#252525"/>
<path d="M60.448 74.72V80H35.68V75.824L49.024 63.152C50.528 61.712 51.536 60.464 52.048 59.408C52.592 58.32 52.864 57.248 52.864 56.192C52.864 54.624 52.336 53.424 51.28 52.592C50.224 51.76 48.672 51.344 46.624 51.344C43.2 51.344 40.576 52.512 38.752 54.848L34.384 51.488C35.696 49.728 37.456 48.368 39.664 47.408C41.904 46.416 44.4 45.92 47.152 45.92C50.8 45.92 53.712 46.784 55.888 48.512C58.064 50.24 59.152 52.592 59.152 55.568C59.152 57.392 58.768 59.104 58 60.704C57.232 62.304 55.76 64.128 53.584 66.176L44.608 74.72H60.448ZM74.5615 59.408C79.2975 59.408 82.8015 60.336 85.0735 62.192C87.3455 64.016 88.4815 66.512 88.4815 69.68C88.4815 71.696 87.9855 73.52 86.9935 75.152C86.0015 76.784 84.5135 78.08 82.5295 79.04C80.5455 80 78.0975 80.48 75.1855 80.48C72.7855 80.48 70.4655 80.144 68.2255 79.472C65.9855 78.768 64.0975 77.808 62.5615 76.592L65.2015 71.744C66.4495 72.768 67.9375 73.584 69.6655 74.192C71.4255 74.768 73.2335 75.056 75.0895 75.056C77.2975 75.056 79.0255 74.608 80.2735 73.712C81.5535 72.784 82.1935 71.52 82.1935 69.92C82.1935 68.192 81.5055 66.896 80.1295 66.032C78.7855 65.136 76.4655 64.688 73.1695 64.688H65.0575L66.7855 46.4H86.5135V51.632H72.0655L71.3455 59.408H74.5615Z" fill="white"/>
</svg>
