<svg width="65" height="65" viewBox="0 0 65 65" fill="none" xmlns="http://www.w3.org/2000/svg">
<path d="M64.6279 41.2509C64.3919 41.0145 64.0644 40.8789 63.7305 40.8789C63.3966 40.8789 63.069 41.0146 62.8329 41.2509C62.5968 41.4871 62.4609 41.8146 62.4609 42.1484C62.4609 42.4823 62.5966 42.8099 62.8329 43.0459C63.069 43.282 63.3966 43.418 63.7305 43.418C64.0644 43.418 64.3919 43.2821 64.6279 43.0459C64.8642 42.8097 65 42.4823 65 42.1484C65 41.8146 64.8642 41.4869 64.6279 41.2509Z" fill="white"/>
<path d="M63.7305 46.084C63.0294 46.084 62.4609 46.6525 62.4609 47.3535V56.1093C62.4609 58.2094 60.7524 59.9179 58.6523 59.9179H6.34766C4.33304 59.9179 2.67973 58.3452 2.54846 56.3632H19.3391C20.0402 56.3632 20.6087 55.7947 20.6087 55.0937C20.6087 54.3927 20.0402 53.8242 19.3391 53.8242H2.53906V33.2168C3.68253 34.1255 5.12764 34.6704 6.69843 34.6704H10.9752V36.751C10.9752 39.621 13.3103 41.9561 16.1803 41.9561H16.5487C19.4187 41.9561 21.7538 39.621 21.7538 36.751V34.6704H43.2461V36.751C43.2461 39.621 45.5811 41.9561 48.4512 41.9561H48.8196C51.6896 41.9561 54.0247 39.621 54.0247 36.751V34.6704H58.3014C59.8722 34.6704 61.3172 34.1255 62.4608 33.2168V37.2076C62.4608 37.9087 63.0293 38.4772 63.7303 38.4772C64.4314 38.4772 64.9999 37.9087 64.9999 37.2076V20.3084C65 16.8082 62.1524 13.9608 58.6523 13.9608H46.9922V9.14288C46.9922 5.50364 44.0315 2.54297 40.3923 2.54297H24.6077C20.9685 2.54297 18.0078 5.50364 18.0078 9.14288V13.9608H6.34766C2.84756 13.9608 0 16.8083 0 20.3084V56.1092C0 59.6093 2.84756 62.4569 6.34766 62.4569H58.6523C62.1524 62.4569 65 59.6093 65 56.1092V47.3535C65 46.6523 64.4315 46.084 63.7305 46.084ZM19.2149 36.7509C19.2149 38.2209 18.0188 39.4169 16.5488 39.4169H16.1804C14.7104 39.4169 13.5144 38.2209 13.5144 36.7509V32.1151H19.2149V36.7509ZM51.4857 36.7509C51.4857 38.2209 50.2897 39.4169 48.8197 39.4169H48.4513C46.9813 39.4169 45.7853 38.2209 45.7853 36.7509V32.1151H51.4857V36.7509ZM20.5469 9.14288C20.5469 6.90368 22.3686 5.08203 24.6077 5.08203H40.3923C42.6315 5.08203 44.4531 6.90381 44.4531 9.14288V13.9608H41.9141V8.89063C41.9141 8.18959 41.3456 7.62109 40.6446 7.62109H24.3554C23.6544 7.62109 23.0859 8.18959 23.0859 8.89063V13.9609H20.5469V9.14288ZM39.3751 10.1602V13.9609H25.625V10.1602H39.3751ZM2.53906 20.3084C2.53906 18.2084 4.2476 16.4998 6.34766 16.4998H58.6523C60.7524 16.4998 62.4609 18.2084 62.4609 20.3084V27.9718C62.4609 30.2652 60.5951 32.1312 58.3016 32.1312H54.0248V31.2264C54.0248 30.3164 53.2844 29.576 52.3744 29.576H44.8966C43.9866 29.576 43.2462 30.3164 43.2462 31.2264V32.1312H21.7539V31.2264C21.7539 30.3164 21.0135 29.576 20.1035 29.576H12.6256C11.7156 29.576 10.9752 30.3164 10.9752 31.2264V32.1312H6.69843C4.40489 32.1313 2.53906 30.2653 2.53906 27.9719V20.3084Z" fill="white"/>
<path d="M24.353 53.8242H24.3327C23.6317 53.8242 23.0632 54.3927 23.0632 55.0938C23.0632 55.7948 23.6317 56.3633 24.3327 56.3633H24.353C25.0541 56.3633 25.6226 55.7948 25.6226 55.0938C25.6226 54.3926 25.0541 53.8242 24.353 53.8242Z" fill="white"/>
</svg>
