<svg width="65" height="65" viewBox="0 0 65 65" fill="none" xmlns="http://www.w3.org/2000/svg">
<g clip-path="url(#clip0)">
<path d="M30.0403 7.2092L17.7358 4.8085C17.2017 4.70386 16.6616 4.95033 16.3889 5.42045C16.2049 5.73783 11.8597 13.3094 9.9703 22.9935C9.53439 25.2281 9.34247 27.4463 9.38711 29.5554C9.40793 31.2073 9.60679 32.8701 9.97823 34.4793C10.0839 34.9356 10.2068 35.3883 10.3467 35.8351C11.3965 39.187 13.1997 41.4771 15.4947 42.4233L12.8372 56.7467L7.11385 55.6299C5.66431 55.3472 4.16913 56.1536 3.61768 57.5248C3.52445 57.7574 3.46792 57.9979 3.42031 58.2429C3.37469 58.475 3.3246 58.706 3.30823 58.9426C3.25616 59.6919 3.48379 60.4422 3.93655 61.0408C4.39825 61.6513 5.07715 62.0728 5.82796 62.2196L19.7888 64.9436C20.9993 65.1797 22.2828 64.6416 22.977 63.6245C23.1585 63.3582 23.2974 63.0631 23.3847 62.7527C23.4918 62.3728 23.5786 61.9612 23.5979 61.567C23.6336 60.8419 23.404 60.1134 22.9671 59.5347C22.5074 58.9262 21.8231 58.5007 21.0742 58.3544L15.339 57.2352L17.9976 42.9078C20.3413 42.8865 22.7281 41.5902 24.8655 39.1582C25.0405 38.9599 25.2076 38.7561 25.3728 38.5493C26.9418 36.5919 28.255 34.1262 29.2191 31.361C29.7165 29.9318 30.1102 28.4649 30.3998 26.9797C32.2897 17.296 31.1095 8.64635 31.0584 8.28285C30.9825 7.74478 30.5739 7.31334 30.0403 7.2092ZM20.9537 61.0998C21.0509 61.2441 21.0574 61.4182 21.0331 61.5853C21.0108 61.739 20.983 61.9106 20.9265 62.0559C20.8233 62.3237 20.5674 62.4983 20.2768 62.4417L6.31643 59.7177C6.14831 59.685 6.00103 59.5749 5.9197 59.4246C5.80862 59.2203 5.86912 59.0081 5.90978 58.7938C5.94648 58.6014 5.97425 58.4115 6.12699 58.2731C6.26039 58.1521 6.44834 58.0976 6.62538 58.1323L20.5863 60.8563C20.7896 60.896 20.9036 61.0259 20.9537 61.0998ZM18.1647 7.48939L28.6359 9.53254C28.8784 11.9566 29.3654 18.9712 27.8985 26.4917C27.7814 27.0912 27.6455 27.6809 27.4963 28.2606H11.9366C11.9782 26.7114 12.1558 25.1041 12.4722 23.4815C13.9371 15.9759 17.0291 9.6466 18.1647 7.48939ZM25.6212 33.3853C24.9721 34.7089 24.1945 35.978 23.2557 37.1171C21.887 38.7794 20.4429 39.8307 19.0524 40.2046C18.3517 40.3906 17.6153 40.4139 16.914 40.2195C15.7318 39.8902 14.6993 38.9757 13.885 37.6174C12.9438 36.0365 12.4444 34.2046 12.1746 32.3965C12.0958 31.8703 12.0382 31.3402 11.9981 30.8096H26.7103C26.3939 31.6869 26.0333 32.5487 25.6212 33.3853Z" fill="white"/>
<path d="M25.6629 22.1241C25.7026 22.1276 25.7417 22.1296 25.7804 22.1296C26.432 22.1296 26.988 21.6322 27.0485 20.9707C27.2875 18.3493 27.3544 15.6401 27.2468 12.9185C27.2186 12.2149 26.6319 11.6669 25.9227 11.6951C25.219 11.7229 24.6716 12.3155 24.6993 13.0192C24.803 15.6302 24.739 18.2273 24.5094 20.7391C24.4454 21.4403 24.9622 22.0602 25.6629 22.1241Z" fill="white"/>
<path d="M61.6412 58.5539C61.5504 58.0872 61.4503 57.6151 61.2241 57.1921C61.0307 56.8296 60.754 56.5097 60.4327 56.2543C59.7195 55.687 58.7828 55.4554 57.8872 55.6305L52.1574 56.7483L49.3615 42.4184C54.2749 40.3763 56.6801 32.2374 54.8765 22.9936C52.9871 13.3095 48.6414 5.73791 48.4579 5.42053C48.1852 4.95041 47.6441 4.70444 47.111 4.80858L34.806 7.20928C34.2729 7.31342 33.8638 7.74486 33.7879 8.28293C33.7368 8.64643 32.557 17.2961 34.4465 26.9797C36.2501 36.2235 41.539 42.8613 46.8596 42.9069L49.6555 57.2367L43.9263 58.3545C42.7331 58.5871 41.7537 59.5427 41.478 60.7245C41.3148 61.4262 41.4229 62.1775 41.6451 62.8544C41.8613 63.5135 42.3022 64.0922 42.8794 64.476C43.5593 64.9283 44.4098 65.0999 45.2117 64.9437L59.1726 62.2197C60.8433 61.8933 61.968 60.2271 61.6412 58.5539ZM36.2114 9.53262L46.6821 7.48947C47.8182 9.64767 50.9102 15.9765 52.3746 23.4816C52.4396 23.8144 52.4976 24.1461 52.5507 24.4769H36.5987C35.5702 17.7573 35.9917 11.7409 36.2114 9.53262ZM59.0516 59.4743C59.002 59.5482 58.8884 59.6776 58.6846 59.7173L44.7242 62.4418C44.5482 62.476 44.3587 62.422 44.2263 62.3015C44.0751 62.1651 44.0443 61.9687 44.0081 61.7788C43.9704 61.5844 43.9159 61.3786 43.9997 61.1882C44.0741 61.0191 44.2332 60.8916 44.4148 60.8564L58.3751 58.1319C58.6618 58.0758 58.9211 58.2553 59.0248 58.5177C59.1314 58.7865 59.2251 59.2164 59.0516 59.4743ZM46.6682 40.352C45.5687 40.286 44.5402 39.7827 43.6649 39.139C42.7897 38.4953 42.0344 37.6979 41.3664 36.8439C40.9617 36.3262 40.5898 35.7832 40.2451 35.2238C39.59 34.1615 38.99 32.9659 38.4683 31.6681C37.8628 30.1665 37.3986 28.6083 37.0584 27.0259H52.8442C53.0069 29.3452 52.9047 31.7177 52.3662 33.986C52.2125 34.6331 52.0205 35.2719 51.783 35.8932C50.8884 38.232 49.5454 39.7485 47.9754 40.2077C47.5519 40.3302 47.109 40.3778 46.6682 40.352Z" fill="white"/>
<path d="M33.5082 1.27449C33.5082 0.570793 32.9374 0 32.2337 0C31.5295 0 30.9592 0.570793 30.9592 1.27449V5.41584C30.9592 6.11954 31.5295 6.69033 32.2337 6.69033C32.9374 6.69033 33.5082 6.11954 33.5082 5.41584V1.27449Z" fill="white"/>
<path d="M27.0648 4.82335C27.3048 5.21859 27.7249 5.43679 28.1558 5.43679C28.381 5.43679 28.6096 5.37679 28.8159 5.25132C29.4174 4.88584 29.6093 4.1018 29.2438 3.50026L27.6728 0.913591C27.3073 0.312548 26.5238 0.12063 25.9217 0.486117C25.3202 0.851603 25.1288 1.63564 25.4943 2.23718L27.0648 4.82335Z" fill="white"/>
<path d="M35.9044 5.25119C36.1107 5.37666 36.3393 5.43666 36.5645 5.43666C36.9954 5.43666 37.4155 5.21846 37.6555 4.82322L39.226 2.23705C39.5915 1.63551 39.4001 0.851474 38.7986 0.485988C38.1965 0.120502 37.413 0.311923 37.0475 0.913463L35.4769 3.50013C35.111 4.10167 35.3029 4.88571 35.9044 5.25119Z" fill="white"/>
<path d="M45.7954 15.871C46.2804 17.2001 46.7188 18.547 47.1026 19.9087C47.2543 20.4473 47.3377 21.0141 47.8569 21.3265C48.3136 21.6008 48.9112 21.5576 49.3228 21.2189C49.7091 20.9016 49.8668 20.3863 49.7448 19.9048C49.5777 19.2437 49.3793 18.5886 49.1785 17.9365C48.9712 17.2616 48.751 16.5901 48.5194 15.9231C48.4049 15.5928 48.3012 15.2521 48.1633 14.9308C48.0696 14.7111 47.9134 14.5207 47.717 14.3853C47.2682 14.0758 46.6553 14.0892 46.2204 14.419C45.781 14.7537 45.6054 15.3523 45.7954 15.871Z" fill="white"/>
<path d="M26.3418 25.9035C26.3418 26.6102 25.7685 27.1834 25.0618 27.1834C24.3547 27.1834 23.7819 26.6102 23.7819 25.9035C23.7819 25.1963 24.3547 24.6235 25.0618 24.6235C25.7685 24.6235 26.3418 25.1963 26.3418 25.9035Z" fill="white"/>
<path d="M46.3523 10.736C46.3523 11.4427 45.779 12.0159 45.0723 12.0159C44.3657 12.0159 43.7924 11.4427 43.7924 10.736C43.7924 10.0288 44.3657 9.45605 45.0723 9.45605C45.779 9.45605 46.3523 10.0288 46.3523 10.736Z" fill="white"/>
</g>
<defs>
<clipPath id="clip0">
<rect width="65" height="65" fill="white"/>
</clipPath>
</defs>
</svg>
