<svg width="65" height="65" viewBox="0 0 65 65" fill="none" xmlns="http://www.w3.org/2000/svg">
<path d="M20.2712 2.3783C16.2394 4.01293 12.6217 6.41638 9.51949 9.51769C6.41638 12.6199 4.01563 16.2386 2.3801 20.2694C0.80115 24.1638 0 28.2791 0 32.5005C0 36.7209 0.80115 40.8362 2.3801 44.7288C4.01563 48.7606 6.41728 52.3792 9.51949 55.4805C12.6217 58.5836 16.2385 60.9853 20.2712 62.6199C24.1656 64.2007 28.28 64.9991 32.5013 64.9991C36.7226 64.9991 40.8362 64.198 44.7306 62.6199C48.7615 60.9853 52.381 58.5836 55.4823 55.4805C58.5854 52.3792 60.9871 48.7624 62.6217 44.7288C64.2006 40.8362 65 36.7209 65 32.5005C65 28.2791 64.1997 24.1638 62.6217 20.2694C60.9871 16.2386 58.5836 12.619 55.4823 9.51769C52.381 6.41638 48.765 4.01293 44.7306 2.3783C40.8362 0.800252 36.7226 0 32.5013 0C28.28 0 24.1656 0.800252 20.2712 2.3783ZM8.12287 46.182C6.55739 45.1994 5.11496 44.0677 3.83779 42.7349C1.88701 37.2454 1.55649 31.3023 2.84893 25.661C3.45698 24.462 4.14855 23.3106 4.93084 22.2077C5.17244 21.8673 5.39608 21.5125 5.65475 21.182L12.989 25.5218C12.989 25.5793 12.989 25.6422 12.989 25.7059C12.9702 29.6506 13.3708 33.5666 14.1683 37.4259C14.171 37.4439 14.1737 37.4537 14.1773 37.4699L8.48931 46.3885C8.36537 46.3257 8.24232 46.2574 8.12287 46.182ZM29.9299 61.2592C31.1954 61.905 32.4969 62.4502 33.8342 62.8938C28.1534 63.1408 22.416 61.8098 17.3442 58.8998L29.6389 61.0904C29.7332 61.1505 29.8294 61.208 29.9299 61.2592ZM29.885 59.0399L15.3763 56.4541C13.6788 54.3929 12.152 52.2121 10.8398 49.8814C10.5057 49.2887 10.1329 48.713 9.85001 48.0941L15.5326 39.1845C15.6583 39.2159 15.7985 39.2491 15.9574 39.2914C19.5123 40.2425 23.1301 40.9188 26.7729 41.4487C26.9858 41.4784 27.1636 41.5044 27.3154 41.5206L34.127 53.298C32.945 54.9596 31.7496 56.6122 30.5281 58.2468C30.3251 58.519 30.1096 58.7803 29.885 59.0399ZM54.0237 54.0228C52.8687 55.1787 51.6427 56.2206 50.3593 57.1493C50.1464 55.4482 49.7791 53.7812 49.2608 52.1529L56.5286 38.5944C58.5306 37.6828 60.4617 36.649 62.2544 35.3673C62.4888 35.2012 62.6837 35.0153 62.8346 34.8123C62.3082 41.8188 59.3713 48.6761 54.0237 54.0228ZM53.7013 36.4388C53.9716 36.9544 54.2384 37.4753 54.506 38.0034L47.4861 51.0984C47.4457 51.1074 47.407 51.1164 47.3666 51.1218C43.5719 51.8304 39.7467 52.2077 35.8892 52.2256L28.8836 40.1123C29.974 38.0878 31.0544 36.0553 32.1259 34.0219C32.8534 32.6424 33.5683 31.2538 34.2824 29.8662L48.7812 28.377C50.5569 30.9817 52.2391 33.642 53.7013 36.4388ZM50.7598 20.9062C50.0718 22.7232 49.3354 24.5213 48.6034 26.323L34.4791 27.7735C34.3102 27.5507 34.1351 27.3316 33.951 27.1223C32.2831 25.2335 30.6045 23.3564 28.9285 21.4739C28.9438 21.455 28.959 21.4406 28.9743 21.4236C28.298 20.7482 27.6199 20.0728 26.9436 19.3955L30.8757 7.55703C31.1469 7.48518 31.42 7.425 31.6957 7.39537C33.8333 7.17801 35.9736 6.93192 38.1166 6.80798C39.4288 6.73433 40.7482 6.69211 42.0828 6.78642L51.8116 17.7519C51.4766 18.81 51.1496 19.8707 50.7598 20.9062ZM54.0237 10.9763C56.7074 13.6618 58.7857 16.7262 60.2551 20C58.4372 18.7489 56.4936 17.7196 54.4503 16.8807C54.1324 16.7496 53.8064 16.6337 53.4749 16.5197L43.8989 5.7266C43.9653 5.26046 44.0004 4.79343 44.0147 4.3228C47.6576 5.80564 51.0724 8.02587 54.0237 10.9763ZM22.7537 3.75606C22.7914 3.78391 22.8094 3.80726 22.831 3.81354C25.0198 4.56979 27.011 5.68349 28.8881 7.00467L25.2147 18.0672C25.1958 18.0726 25.1778 18.078 25.1599 18.086C24.4081 18.3968 23.642 18.6752 22.9019 19.012C19.8527 20.3979 16.8798 21.9328 14.0794 23.7731L6.83043 19.4845C6.84121 19.2581 6.87983 19.0282 6.95707 18.8234C7.44387 17.5265 7.92258 16.2224 8.47315 14.9515C8.89707 13.9725 9.38028 13.0268 9.90749 12.1026C10.2524 11.7218 10.6098 11.3445 10.9781 10.9763C14.4207 7.53458 18.4893 5.09071 22.8211 3.64559C22.7986 3.68062 22.7753 3.71744 22.7537 3.75606Z" fill="white"/>
</svg>
