<svg width="65" height="65" viewBox="0 0 65 65" fill="none" xmlns="http://www.w3.org/2000/svg">
<path d="M44.544 18.3102C40.16 18.3102 36.012 19.6638 32.5 22.2309C30.3113 20.6312 27.8759 19.5032 25.29 18.8801L30.7859 12.5817C30.7878 12.5796 30.7891 12.577 30.7908 12.5749C30.8235 12.5369 30.8525 12.4963 30.8788 12.4536C30.883 12.4468 30.8872 12.44 30.8913 12.4332C30.9156 12.3912 30.937 12.3474 30.9549 12.3015C30.9576 12.2944 30.9601 12.2873 30.9627 12.2801C30.9795 12.234 30.9934 12.1865 31.003 12.1375C31.0039 12.1331 31.0042 12.1286 31.005 12.1243C31.0133 12.0785 31.0179 12.0316 31.0195 11.9839C31.0197 11.9776 31.0204 11.9713 31.0204 11.965C31.0204 11.9616 31.0209 11.9581 31.0209 11.9547C31.0209 11.9091 31.0166 11.8646 31.0105 11.8209C31.0092 11.8123 31.008 11.8039 31.0065 11.7953C30.9984 11.7469 30.987 11.6997 30.9717 11.6542C30.9697 11.6482 30.9673 11.6424 30.9653 11.6364C30.948 11.5878 30.9277 11.5406 30.9032 11.496C30.9022 11.4941 30.9009 11.4923 30.8999 11.4904C30.8735 11.4431 30.8431 11.3983 30.8092 11.3564C30.8082 11.3551 30.8076 11.3537 30.8066 11.3524L30.803 11.3481L26.5522 6.1301C26.3711 5.90768 26.0993 5.77856 25.8125 5.77856H22.5754H18.3358H15.099C14.8121 5.77856 14.5404 5.90768 14.3593 6.1301L10.1086 11.3474L10.1051 11.3517C10.1041 11.3529 10.1034 11.3543 10.1024 11.3556C10.0685 11.3975 10.0383 11.4423 10.0118 11.4897C10.0108 11.4916 10.0095 11.4934 10.0085 11.4953C9.98397 11.54 9.96366 11.5872 9.9464 11.6357C9.94424 11.6416 9.94183 11.6475 9.93992 11.6534C9.92481 11.699 9.91339 11.7463 9.90514 11.7945C9.90374 11.803 9.90247 11.8115 9.9012 11.8201C9.89498 11.8641 9.89079 11.9084 9.89079 11.9539C9.89079 11.9575 9.8913 11.9608 9.8913 11.9642C9.89143 11.9706 9.89206 11.9768 9.89219 11.9831C9.89358 12.031 9.89841 12.0779 9.90666 12.1236C9.90742 12.128 9.9078 12.1324 9.90869 12.1368C9.91821 12.1859 9.93218 12.2334 9.94894 12.2793C9.9516 12.2866 9.95401 12.2937 9.95681 12.3008C9.97471 12.3466 9.99604 12.3904 10.0204 12.4324C10.0243 12.4393 10.0287 12.446 10.0329 12.4529C10.0591 12.4957 10.0885 12.5362 10.1208 12.5741C10.1227 12.5763 10.1239 12.5788 10.1258 12.581L15.6278 18.8867C6.67101 21.063 0 29.1495 0 38.7662C0 50.0457 9.17655 59.2221 20.4558 59.2221C24.8399 59.2221 28.9878 57.8686 32.5 55.3015C36.012 57.8685 40.1598 59.2221 44.5442 59.2221C55.8236 59.2221 65 50.0456 65 38.7662C65 27.4868 55.8234 18.3102 44.544 18.3102ZM25.3593 7.68616L28.0589 11.0001H24.9542L23.8857 7.68616H25.3593ZM24.9392 12.9084H27.968L23.1076 18.4787C23.0782 18.475 23.0491 18.4708 23.0199 18.4671L24.9392 12.9084ZM19.031 7.68604H21.8808L22.9492 11H17.9626L19.031 7.68604ZM22.9204 12.9085L21.052 18.3198C20.8538 18.3142 20.6553 18.3104 20.4561 18.3104C20.3337 18.3104 20.2081 18.3123 20.0806 18.3151C20.0071 18.3163 19.9334 18.3175 19.8599 18.3196L17.9915 12.9085H22.9204ZM15.5526 7.68604H17.0259L15.9576 11H12.853L15.5526 7.68604ZM12.9439 12.9085H15.9726L17.8932 18.4705C17.8643 18.4741 17.8355 18.4778 17.8068 18.4815L12.9439 12.9085ZM20.4558 57.3137C10.2287 57.3137 1.90836 48.9933 1.90836 38.7662C1.90836 29.5144 8.71762 21.8234 17.5876 20.4406C17.809 20.4062 18.0313 20.3763 18.2543 20.3499C18.2821 20.3466 18.3102 20.3434 18.3381 20.3402C18.6377 20.3061 18.9384 20.2813 19.2391 20.2616C19.2438 20.2614 19.2484 20.2623 19.2531 20.2619C19.475 20.2477 19.6784 20.2373 19.8701 20.23C20.0654 20.2238 20.2608 20.2186 20.4557 20.2186C20.8461 20.2186 21.2337 20.2434 21.6553 20.2705C21.6758 20.2718 21.6964 20.2724 21.7167 20.2724C21.7321 20.2724 21.7471 20.2696 21.7623 20.2689C22.272 20.3072 22.7911 20.3671 23.329 20.4508C23.378 20.4584 23.4272 20.4621 23.4758 20.4621C23.4778 20.4621 23.48 20.4618 23.482 20.4617C26.5492 20.9601 29.4202 22.2195 31.91 24.1771C32.1665 24.3787 32.4179 24.5876 32.6639 24.8029C32.9035 25.0126 33.1376 25.2289 33.3663 25.451C33.4899 25.5709 33.6121 25.6923 33.7323 25.8156C34.0754 26.1672 34.4046 26.5325 34.7186 26.91C34.7186 26.91 34.7186 26.91 34.7188 26.9102C37.4816 30.2301 39.0033 34.4406 39.0033 38.7661C39.0033 42.7825 37.6912 46.6999 35.292 49.8971C35.2869 49.8927 35.2815 49.8887 35.2763 49.8845C35.1443 49.7742 35.0141 49.6618 34.8858 49.5469C34.8612 49.5248 34.8372 49.5016 34.8127 49.4793C34.71 49.3859 34.6083 49.2917 34.5083 49.1955C34.4645 49.1534 34.4219 49.1102 34.3787 49.0674C34.2992 48.9891 34.22 48.9103 34.1424 48.83C34.0954 48.7814 34.0492 48.732 34.003 48.6829C33.9306 48.6061 33.8588 48.5285 33.7881 48.45C33.7665 48.4262 33.7453 48.4017 33.7238 48.3777C35.2638 46.2543 36.2747 43.7872 36.6603 41.1958C36.7377 40.6746 36.3782 40.1891 35.857 40.1116C35.3351 40.0338 34.8503 40.3939 34.7728 40.9149C34.4599 43.018 33.6786 45.0279 32.4981 46.7957C30.9048 44.4199 30.0685 41.6686 30.0685 38.7659C30.0685 35.8633 30.905 33.112 32.4981 30.7363C33.8036 32.6891 34.614 34.9238 34.8549 37.2702C34.9054 37.7614 35.3198 38.127 35.8029 38.127C35.8356 38.127 35.8684 38.1253 35.9016 38.1219C36.4259 38.0681 36.8071 37.5994 36.7533 37.0752C36.432 33.9445 35.2184 30.988 33.2443 28.5254C32.4499 27.5344 31.5433 26.6386 30.5442 25.8568C30.4015 25.7451 30.2567 25.6357 30.1104 25.5289C27.2924 23.4704 23.9539 22.3821 20.4558 22.3821C16.5134 22.3821 12.7036 23.8027 9.72829 26.382C9.33017 26.7272 9.28726 27.3299 9.63231 27.728C9.9775 28.1261 10.5801 28.169 10.9783 27.824C13.6066 25.5453 16.9724 24.2905 20.4557 24.2905C23.2135 24.2905 25.8577 25.0578 28.1638 26.5145C25.529 30.0366 24.0878 34.3466 24.0878 38.7658C24.0878 43.1849 25.529 47.495 28.1638 51.0172C25.8577 52.4738 23.2135 53.2411 20.4557 53.2411C12.4739 53.2411 5.98038 46.7475 5.98038 38.7658C5.98038 35.7974 6.8721 32.945 8.55905 30.5169C8.8598 30.0842 8.75266 29.4896 8.31987 29.1888C7.88709 28.888 7.29257 28.9952 6.99194 29.428C5.08168 32.1773 4.07202 35.4063 4.07202 38.7658C4.07202 47.7998 11.4217 55.1495 20.4557 55.1495C23.6592 55.1495 26.7286 54.2371 29.3871 52.5023C29.4105 52.528 29.4348 52.553 29.4583 52.5786C29.5212 52.6471 29.5848 52.715 29.6486 52.7828C29.7097 52.8478 29.7709 52.9126 29.833 52.9768C29.8978 53.044 29.9636 53.1104 30.0294 53.1766C30.0921 53.2399 30.1548 53.303 30.2183 53.3653C30.2849 53.4307 30.3523 53.4952 30.4197 53.5597C30.4841 53.6211 30.5483 53.6827 30.6135 53.7434C30.6817 53.8068 30.7507 53.8694 30.8198 53.9319C30.8657 53.9735 30.9107 54.0161 30.9568 54.0572C27.8643 56.1919 24.2581 57.3137 20.4558 57.3137ZM44.544 57.3137C40.3442 57.3137 36.3832 55.9449 33.0897 53.3553C32.0639 52.5485 31.1187 51.6291 30.2809 50.6222C27.518 47.302 25.9963 43.0916 25.9963 38.7662C25.9963 34.7499 27.3083 30.8325 29.7077 27.6352C29.7126 27.6393 29.7177 27.6432 29.7226 27.6473C29.8549 27.7576 29.9853 27.8702 30.1137 27.9852C30.1392 28.0081 30.1639 28.0321 30.1893 28.0552C30.2911 28.1477 30.3921 28.2411 30.4912 28.3366C30.5355 28.3793 30.5787 28.4231 30.6225 28.4664C30.7012 28.5441 30.7798 28.6223 30.8567 28.7017C30.9045 28.751 30.9512 28.8011 30.998 28.851C31.0695 28.9271 31.1406 29.0036 31.2105 29.0812C31.2325 29.1056 31.2542 29.1304 31.2759 29.1551C29.2616 31.9364 28.1601 35.3189 28.1601 38.7663C28.1601 42.478 29.4369 46.1149 31.7554 49.0066C32.6633 50.139 33.7177 51.1473 34.8893 52.0032C37.7072 54.0618 41.0458 55.15 44.5439 55.15C48.8286 55.15 52.8811 53.5067 55.9547 50.5231C56.3328 50.156 56.3418 49.552 55.9746 49.1738C55.6076 48.7956 55.0036 48.7869 54.6254 49.1539C51.9099 51.7899 48.3295 53.2416 44.5438 53.2416C41.786 53.2416 39.1418 52.4742 36.8356 51.0175C39.4704 47.4955 40.9115 43.1854 40.9115 38.7662C40.9115 34.347 39.4704 30.0369 36.8356 26.5148C39.1418 25.0582 41.786 24.2909 44.5438 24.2909C52.5256 24.2909 59.0191 30.7845 59.0191 38.7662C59.0191 41.453 58.278 44.0758 56.8756 46.3506C56.599 46.7993 56.7387 47.3871 57.1872 47.6636C57.6358 47.9402 58.2236 47.8006 58.5001 47.352C60.0882 44.7759 60.9276 41.807 60.9276 38.7662C60.9276 29.7322 53.5779 22.3825 44.5439 22.3825C41.3405 22.3825 38.271 23.2949 35.6125 25.0297C35.5898 25.0047 35.5662 24.9804 35.5433 24.9555C35.4787 24.885 35.4134 24.8152 35.3478 24.7455C35.2884 24.6824 35.229 24.6194 35.1688 24.5571C35.102 24.488 35.0345 24.4197 34.9667 24.3516C34.9059 24.2904 34.8452 24.2292 34.7836 24.1687C34.715 24.1013 34.6455 24.0348 34.5758 23.9683C34.5135 23.9087 34.4513 23.8492 34.3883 23.7905C34.3177 23.7248 34.2461 23.6599 34.1744 23.5952C34.1302 23.5552 34.0872 23.5143 34.0427 23.4748C37.1354 21.3407 40.7415 20.219 44.5439 20.219C54.771 20.219 63.0914 28.5394 63.0914 38.7664C63.0916 48.9933 54.7713 57.3137 44.544 57.3137Z" fill="white"/>
</svg>
